<svg xmlns="http://www.w3.org/2000/svg" viewBox="0 0 32 32">
  <defs>
    <linearGradient id="bgGrad" x1="0%" y1="0%" x2="100%" y2="100%">
      <stop offset="0%" style="stop-color:#0077CC"/>
      <stop offset="100%" style="stop-color:#005A9C"/>
    </linearGradient>
  </defs>

  <!-- Background circle -->
  <circle cx="16" cy="16" r="15" fill="url(#bgGrad)"/>

  <!-- Simplified shuttlecock silhouette -->
  <path d="M12 6 L12 14 Q12 16 14 17 L14 8 Q14 6 12 6" fill="#ffffff" opacity="0.9"/>
  <path d="M15 7 L15 17.5 Q15 18.5 16 19 L16 8.5 Q16 7 15 7" fill="#ffffff"/>
  <path d="M18 7 L18 17.5 Q18 18.5 17 19 L17 8.5 Q17 7 18 7" fill="#ffffff"/>
  <path d="M20 6 L20 14 Q20 16 18 17 L18 8 Q18 6 20 6" fill="#ffffff" opacity="0.9"/>

  <!-- Cork with calendar icon -->
  <circle cx="16" cy="23" r="5.5" fill="#ffffff"/>
  <rect x="13.5" y="21" width="5" height="4" rx="0.5" fill="none" stroke="#005A9C" stroke-width="0.8"/>
  <line x1="13.5" y1="22.2" x2="18.5" y2="22.2" stroke="#005A9C" stroke-width="0.8"/>
  <path d="M14.5 23.8 L15.5 24.8 L17.5 22.8" fill="none" stroke="#005A9C" stroke-width="0.9" stroke-linecap="round" stroke-linejoin="round"/>
</svg>