<svg xmlns="http://www.w3.org/2000/svg" viewBox="0 0 280 60">
  <defs>
    <linearGradient id="featherGradFull" x1="0%" y1="0%" x2="100%" y2="100%">
      <stop offset="0%" style="stop-color:#0077CC"/>
      <stop offset="100%" style="stop-color:#005A9C"/>
    </linearGradient>
    <linearGradient id="corkGradFull" x1="0%" y1="0%" x2="100%" y2="100%">
      <stop offset="0%" style="stop-color:#F5F5F5"/>
      <stop offset="100%" style="stop-color:#E8E8E8"/>
    </linearGradient>
  </defs>

  <!-- Icon -->
  <g transform="translate(5, 2)">
    <!-- Shuttlecock feathers -->
    <path d="M18 4 L18 24 Q18 27 21 28.5 L21 8 Q21 5.5 18 4" fill="url(#featherGradFull)" opacity="0.9"/>
    <path d="M23 5.5 L23 30 Q23 31.5 26 32 L26 9 Q26 6.5 23 5.5" fill="url(#featherGradFull)"/>
    <path d="M28 7 L28 33 Q28 34 30 34.5 L30 10.5 Q30 8 28 7" fill="url(#featherGradFull)" opacity="0.95"/>

    <path d="M42 4 L42 24 Q42 27 39 28.5 L39 8 Q39 5.5 42 4" fill="url(#featherGradFull)" opacity="0.9"/>
    <path d="M37 5.5 L37 30 Q37 31.5 34 32 L34 9 Q34 6.5 37 5.5" fill="url(#featherGradFull)"/>
    <path d="M32 7 L32 33 Q32 34 30 34.5 L30 10.5 Q30 8 32 7" fill="url(#featherGradFull)" opacity="0.95"/>

    <!-- Grid lines -->
    <rect x="20" y="14" width="20" height="1.5" rx="0.75" fill="#ffffff" opacity="0.4"/>
    <rect x="22" y="21" width="16" height="1.5" rx="0.75" fill="#ffffff" opacity="0.3"/>
    <rect x="24" y="28" width="12" height="1.5" rx="0.75" fill="#ffffff" opacity="0.2"/>

    <!-- Cork -->
    <circle cx="30" cy="44" r="10" fill="url(#corkGradFull)" stroke="#005A9C" stroke-width="1.5"/>

    <!-- Calendar icon in cork -->
    <rect x="25" y="40" width="10" height="8" rx="1.5" fill="none" stroke="#005A9C" stroke-width="1.2"/>
    <line x1="25" y1="43" x2="35" y2="43" stroke="#005A9C" stroke-width="1.2"/>
    <line x1="28" y1="40" x2="28" y2="41.5" stroke="#005A9C" stroke-width="1.2"/>
    <line x1="32" y1="40" x2="32" y2="41.5" stroke="#005A9C" stroke-width="1.2"/>
    <path d="M27 46 L29 48 L33.5 43.5" fill="none" stroke="#005A9C" stroke-width="1.3" stroke-linecap="round" stroke-linejoin="round"/>
  </g>

  <!-- Text -->
  <text x="68" y="40" font-family="'Segoe UI', 'SF Pro Display', -apple-system, BlinkMacSystemFont, sans-serif" font-size="28" font-weight="600" fill="#005A9C">
    <tspan>Court</tspan><tspan fill="#0077CC">Planner</tspan>
  </text>
</svg>